<svg xmlns="http://www.w3.org/2000/svg" xmlns:xlink="http://www.w3.org/1999/xlink" width="1080" zoomAndPan="magnify" viewBox="0 0 810 809.999993" height="1080" preserveAspectRatio="xMidYMid meet" version="1.0"><defs><clipPath id="ef1a29454f"><path d="M 58.875 58.875 L 751.125 58.875 L 751.125 751.125 L 58.875 751.125 Z M 58.875 58.875 " clip-rule="nonzero"/></clipPath><clipPath id="03182325e0"><path d="M 405 58.875 C 213.839844 58.875 58.875 213.839844 58.875 405 C 58.875 596.160156 213.839844 751.125 405 751.125 C 596.160156 751.125 751.125 596.160156 751.125 405 C 751.125 213.839844 596.160156 58.875 405 58.875 Z M 405 58.875 " clip-rule="nonzero"/></clipPath><clipPath id="762aee1d44"><path d="M 192.480469 239.488281 L 577.066406 239.488281 L 577.066406 624.070312 L 192.480469 624.070312 Z M 192.480469 239.488281 " clip-rule="nonzero"/></clipPath></defs><g clip-path="url(#ef1a29454f)"><g clip-path="url(#03182325e0)"><path fill="#f7f7f7" d="M 58.875 58.875 L 751.125 58.875 L 751.125 751.125 L 58.875 751.125 Z M 58.875 58.875 " fill-opacity="1" fill-rule="nonzero"/><path stroke-linecap="butt" transform="matrix(2.136574, 0, 0, 2.136574, 58.875001, 58.875017)" fill="none" stroke-linejoin="miter" d="M 162.000018 -0.00000797449 C 72.529599 -0.00000797449 -0.000000251842 72.529591 -0.000000251842 162.000011 C -0.000000251842 251.47043 72.529599 324.000029 162.000018 324.000029 C 251.470438 324.000029 324.000037 251.47043 324.000037 162.000011 C 324.000037 72.529591 251.470438 -0.00000797449 162.000018 -0.00000797449 Z M 162.000018 -0.00000797449 " stroke="#282a3a" stroke-width="10.530877" stroke-opacity="1" stroke-miterlimit="4"/></g></g><g clip-path="url(#762aee1d44)"><path fill="#282a3a" d="M 308.027344 547.605469 C 286.746094 547.605469 269.703125 564.84375 269.703125 586.121094 C 269.703125 607.402344 286.746094 624.636719 308.027344 624.636719 C 329.308594 624.636719 346.542969 607.402344 346.542969 586.121094 C 346.542969 564.84375 329.308594 547.605469 308.027344 547.605469 Z M 192.480469 239.488281 L 192.480469 278 L 230.996094 278 L 300.226562 424.070312 L 274.230469 471.25 C 271.246094 476.835938 269.511719 483.09375 269.511719 489.835938 C 269.511719 511.113281 286.746094 528.351562 308.027344 528.351562 L 539.117188 528.351562 L 539.117188 489.835938 L 316.210938 489.835938 C 313.515625 489.835938 311.398438 487.714844 311.398438 485.019531 C 311.398438 484.152344 311.589844 483.382812 311.976562 482.710938 L 329.210938 451.320312 L 472.679688 451.320312 C 487.121094 451.320312 499.734375 443.328125 506.378906 431.484375 L 575.226562 306.503906 C 576.765625 303.808594 577.632812 300.628906 577.632812 297.257812 C 577.632812 286.570312 568.96875 278 558.375 278 L 273.652344 278 L 255.359375 239.488281 Z M 500.601562 547.605469 C 479.324219 547.605469 462.28125 564.84375 462.28125 586.121094 C 462.28125 607.402344 479.324219 624.636719 500.601562 624.636719 C 521.882812 624.636719 539.117188 607.402344 539.117188 586.121094 C 539.117188 564.84375 521.882812 547.605469 500.601562 547.605469 Z M 500.601562 547.605469 " fill-opacity="1" fill-rule="nonzero"/></g></svg>