<svg width="32" height="32" viewBox="0 0 32 32" fill="none" xmlns="http://www.w3.org/2000/svg">
<circle cx="16" cy="16" r="16" fill="#282A3A"/>
<path d="M8.43912 7.49401C8.7204 7.17796 9.10169 7.00043 9.49924 7.00043C9.89679 7.00043 10.2781 7.17796 10.5594 7.49401L16 13.6125L21.4406 7.49401C21.5799 7.33739 21.7451 7.21315 21.927 7.12839C22.1089 7.04363 22.3039 7 22.5008 7C22.6976 7 22.8926 7.04363 23.0745 7.12839C23.2564 7.21315 23.4217 7.33739 23.5609 7.49401C23.7001 7.65063 23.8105 7.83656 23.8859 8.04119C23.9612 8.24583 24 8.46515 24 8.68665C24 8.90814 23.9612 9.12746 23.8859 9.3321C23.8105 9.53673 23.7001 9.72267 23.5609 9.87929L18.1222 16L23.5609 22.1207C23.842 22.437 24 22.866 24 23.3134C24 23.7607 23.842 24.1897 23.5609 24.506C23.2797 24.8223 22.8984 25 22.5008 25C22.1031 25 21.7218 24.8223 21.4406 24.506L16 18.3875L10.5594 24.506C10.2782 24.8223 9.89686 25 9.49924 25C9.10162 25 8.72028 24.8223 8.43912 24.506C8.15796 24.1897 8 23.7607 8 23.3134C8 22.866 8.15796 22.437 8.43912 22.1207L13.8778 16L8.43912 9.87929C8.15818 9.56284 8.00039 9.13389 8.00039 8.68665C8.00039 8.23941 8.15818 7.81045 8.43912 7.49401Z" fill="#F7F7F7"/>
</svg>
