<svg width="16" height="16" viewBox="0 0 16 16" fill="none" xmlns="http://www.w3.org/2000/svg">
<circle cx="8" cy="8" r="7.625" fill="#F7F7F7" stroke="#A1A1A1" stroke-width="0.75"/>
<path d="M4.69211 4.69211C4.81518 4.56921 4.98199 4.50017 5.15592 4.50017C5.32985 4.50017 5.49666 4.56921 5.61972 4.69211L8 7.07152L10.3803 4.69211C10.4412 4.63121 10.5135 4.58289 10.5931 4.54993C10.6727 4.51697 10.7579 4.5 10.8441 4.5C10.9302 4.5 11.0155 4.51697 11.0951 4.54993C11.1747 4.58289 11.247 4.63121 11.3079 4.69211C11.3688 4.75302 11.4171 4.82533 11.4501 4.90491C11.483 4.98449 11.5 5.06978 11.5 5.15592C11.5 5.24205 11.483 5.32735 11.4501 5.40693C11.4171 5.48651 11.3688 5.55881 11.3079 5.61972L8.92848 8L11.3079 10.3803C11.4309 10.5033 11.5 10.6701 11.5 10.8441C11.5 11.018 11.4309 11.1849 11.3079 11.3079C11.1849 11.4309 11.018 11.5 10.8441 11.5C10.6701 11.5 10.5033 11.4309 10.3803 11.3079L8 8.92848L5.61972 11.3079C5.49671 11.4309 5.32988 11.5 5.15592 11.5C4.98196 11.5 4.81512 11.4309 4.69211 11.3079C4.56911 11.1849 4.5 11.018 4.5 10.8441C4.5 10.6701 4.56911 10.5033 4.69211 10.3803L7.07152 8L4.69211 5.61972C4.56921 5.49666 4.50017 5.32985 4.50017 5.15592C4.50017 4.98199 4.56921 4.81518 4.69211 4.69211Z" fill="#6B6B6B"/>
</svg>
