<svg width="16" height="16" viewBox="0 0 16 16" fill="none" xmlns="http://www.w3.org/2000/svg">
<circle cx="8" cy="8" r="7.625" fill="#F7F7F7" stroke="#A1A1A1" stroke-width="0.75"/>
<path d="M8.96069 4.86675C9.07677 4.75051 9.21462 4.6583 9.36635 4.59537C9.51809 4.53244 9.68074 4.50003 9.84501 4.5C10.0093 4.49997 10.1719 4.53231 10.3237 4.59517C10.4755 4.65804 10.6133 4.7502 10.7295 4.86639L11.134 5.27089C11.3683 5.50533 11.5 5.82325 11.5 6.15474C11.5 6.48623 11.3683 6.80415 11.134 7.03859L7.04117 11.1325C6.92514 11.2487 6.78734 11.3408 6.63565 11.4037C6.48396 11.4666 6.32136 11.4989 6.15715 11.4989H4.76919C4.6978 11.4989 4.62933 11.4706 4.57884 11.4201C4.52836 11.3696 4.5 11.3011 4.5 11.2297V9.85003C4.49997 9.68599 4.53226 9.52356 4.59502 9.372C4.65777 9.22044 4.74976 9.08273 4.86574 8.96672L8.96069 4.86675ZM10.3486 5.2472C10.2825 5.18103 10.204 5.12853 10.1176 5.09271C10.0312 5.05689 9.93862 5.03845 9.84508 5.03845C9.75154 5.03845 9.65892 5.05689 9.57252 5.09271C9.48611 5.12853 9.40761 5.18103 9.34151 5.2472L9.01992 5.56916L10.4308 6.98008L10.7532 6.65777C10.8866 6.5243 10.9616 6.34329 10.9616 6.15456C10.9616 5.96583 10.8866 5.78482 10.7532 5.65135L10.3486 5.2472Z" fill="#6B6B6B"/>
</svg>
