<svg width="17" height="14" viewBox="0 0 17 14" fill="none" xmlns="http://www.w3.org/2000/svg">
<path fill-rule="evenodd" clip-rule="evenodd" d="M2.47647 0.604625C1.7476 1.21012 1.5551 2.23388 1.17097 4.28225L0.514724 7.78225C-0.0251514 10.6628 -0.294651 12.103 0.491974 13.0515C1.27947 14 2.74422 14 5.67547 14H10.523C13.4542 14 14.919 14 15.7065 13.0515C16.494 12.103 16.2227 10.6628 15.6837 7.78225L15.0275 4.28225C14.6425 2.23475 14.4508 1.21012 13.722 0.604625C12.9931 0 11.951 0 9.86672 0H6.33172C4.24747 0 3.20535 0 2.47647 0.604625ZM6.24247 3.28212C6.37816 3.66628 6.62963 3.99891 6.96224 4.23418C7.29486 4.46946 7.69225 4.59579 8.09966 4.59579C8.50707 4.59579 8.90446 4.46946 9.23708 4.23418C9.56969 3.99891 9.82117 3.66628 9.95685 3.28212C10.018 3.12243 10.1392 2.99294 10.2944 2.92121C10.4497 2.84949 10.6268 2.8412 10.788 2.89811C10.9493 2.95502 11.082 3.07264 11.1578 3.22591C11.2337 3.37919 11.2467 3.55602 11.1941 3.71875C10.9679 4.35867 10.5488 4.91272 9.99462 5.30459C9.44044 5.69647 8.7784 5.90689 8.09966 5.90689C7.42092 5.90689 6.75888 5.69647 6.2047 5.30459C5.65052 4.91272 5.23146 4.35867 5.00522 3.71875C4.97485 3.63713 4.96103 3.55029 4.96455 3.46328C4.96808 3.37626 4.98889 3.29082 5.02577 3.21193C5.06266 3.13304 5.11487 3.06228 5.17937 3.00378C5.24388 2.94527 5.31938 2.90019 5.40148 2.87115C5.48359 2.84212 5.57065 2.82972 5.65759 2.83468C5.74454 2.83963 5.82962 2.86184 5.9079 2.90001C5.98617 2.93818 6.05607 2.99154 6.11351 3.057C6.17095 3.12245 6.21479 3.19956 6.24247 3.28212Z" fill="#C6C6C6"/>
</svg>
