<svg width="12" height="14" viewBox="0 0 12 14" fill="none" xmlns="http://www.w3.org/2000/svg">
<path d="M2.8 0C2.05739 0 1.3452 0.294999 0.820101 0.820101C0.294999 1.3452 0 2.05739 0 2.8V8.4C0 9.14261 0.294999 9.8548 0.820101 10.3799C1.3452 10.905 2.05739 11.2 2.8 11.2H8.4C9.14261 11.2 9.8548 10.905 10.3799 10.3799C10.905 9.8548 11.2 9.14261 11.2 8.4V2.8C11.2 2.05739 10.905 1.3452 10.3799 0.820101C9.8548 0.294999 9.14261 0 8.4 0H2.8ZM0.466667 13.0667C0.342899 13.0667 0.224201 13.1158 0.136684 13.2034C0.0491666 13.2909 0 13.4096 0 13.5333C0 13.6571 0.0491666 13.7758 0.136684 13.8633C0.224201 13.9508 0.342899 14 0.466667 14H10.7333C10.8571 14 10.9758 13.9508 11.0633 13.8633C11.1508 13.7758 11.2 13.6571 11.2 13.5333C11.2 13.4096 11.1508 13.2909 11.0633 13.2034C10.9758 13.1158 10.8571 13.0667 10.7333 13.0667H0.466667Z" fill="#C6C6C6"/>
</svg>
