<svg width="36" height="36" viewBox="0 0 36 36" fill="none" xmlns="http://www.w3.org/2000/svg">
<path d="M18 2C9.1632 2 2 9.1632 2 18C2 26.8368 9.1632 34 18 34C26.8368 34 34 26.8368 34 18C34 9.1632 26.8368 2 18 2Z" stroke="#252525" stroke-width="3.45" stroke-linecap="round" stroke-linejoin="round"/>
<path d="M5.6333 28.1535C5.6333 28.1535 9.1997 23.5999 17.9997 23.5999C26.7997 23.5999 30.3677 28.1535 30.3677 28.1535M17.9997 17.9999C19.2727 17.9999 20.4936 17.4942 21.3938 16.594C22.294 15.6938 22.7997 14.4729 22.7997 13.1999C22.7997 11.9269 22.294 10.706 21.3938 9.80579C20.4936 8.90562 19.2727 8.3999 17.9997 8.3999C16.7267 8.3999 15.5058 8.90562 14.6056 9.80579C13.7054 10.706 13.1997 11.9269 13.1997 13.1999C13.1997 14.4729 13.7054 15.6938 14.6056 16.594C15.5058 17.4942 16.7267 17.9999 17.9997 17.9999Z" stroke="#252525" stroke-width="3.45" stroke-linecap="round" stroke-linejoin="round"/>
</svg>
