<svg width="32" height="32" viewBox="0 0 32 32" fill="none" xmlns="http://www.w3.org/2000/svg">
<circle cx="16" cy="16" r="16" fill="#282A3A"/>
<path d="M26.2092 9.50394L19.3519 26.6409C19.2841 26.8106 19.174 26.9615 19.0314 27.0802C18.8889 27.1989 18.7182 27.2817 18.5346 27.3213C18.351 27.3609 18.1601 27.3561 17.9789 27.3072C17.7977 27.2583 17.6318 27.1669 17.4959 27.0411L13.6307 23.4645L11.2604 25.7564C11.1804 25.8335 11.0786 25.886 10.9678 25.9072C10.857 25.9284 10.7422 25.9174 10.6379 25.8755C10.5336 25.8336 10.4444 25.7628 10.3817 25.6719C10.319 25.5811 10.2855 25.4743 10.2855 25.365V20.3688L4.35281 14.8794C4.20561 14.7432 4.09873 14.5714 4.04323 14.3817C3.98773 14.1921 3.98563 13.9916 4.03715 13.8009C4.08867 13.6103 4.19193 13.4364 4.33624 13.2973C4.48056 13.1582 4.66068 13.059 4.85796 13.0098L24.8583 8.03458C25.0617 7.98419 25.2754 7.98895 25.4761 8.04833C25.6769 8.10771 25.8568 8.21941 25.9962 8.3712C26.1357 8.52298 26.2292 8.70898 26.2666 8.9088C26.3039 9.10861 26.2837 9.31452 26.2081 9.50394H26.2092ZM23.4286 10.7643L10.8935 18.6705L12.8764 20.5059L23.4286 10.7643Z" fill="#F7F7F7"/>
</svg>
